<?xml version="1.0" encoding="UTF-8"?><svg xmlns="http://www.w3.org/2000/svg" viewBox="0 0 64 64"><defs><style>.cls-1{fill:none;stroke:#000;stroke-linecap:round;stroke-linejoin:round;stroke-width:2px;}</style></defs><title>26-web essential</title><g id="Layer_26" data-name="Layer 26"><path class="cls-1" d="M24.67 48.7c6.07-.85 9.19-8.07 5.27-12.79-.18-.21-.37-.42-.57-.62a9 9 0 0 0-1.93-1.48c-4.71-2.67-10.65.44-11.57 5.78-.76 4.4-1.82 10.59-1.82 10.59z" fill="none" stroke="#000" stroke-linecap="round" stroke-linejoin="round" stroke-width="2px"/><path class="cls-1" d="M60.44 4.09a3.18 3.18 0 0 1 .19 4.28L39.19 33.94a3.18 3.18 0 0 1-4.68.21L30.38 30a3.17 3.17 0 0 1 .2-4.67L56.15 3.9a3.17 3.17 0 0 1 4.29.19z" fill="none" stroke="#000" stroke-linecap="round" stroke-linejoin="round" stroke-width="2px"/><path class="cls-1" d="M35.75 40.19c15.22.56 27 4.51 27 9.28 0 5.17-13.79 9.36-30.79 9.36S1.17 54.64 1.17 49.47c0-2.75 3.9-5.22 10.11-6.93" fill="none" stroke="#000" stroke-linecap="round" stroke-linejoin="round" stroke-width="2px"/><path class="cls-1" d="M39.82 44c7.69.72 13.27 2.9 13.27 5.48 0 3.17-8.46 5.74-18.89 5.74-6.41 0-12.08-1-15.49-2.46" fill="none" stroke="#000" stroke-linecap="round" stroke-linejoin="round" stroke-width="2px"/><path class="cls-1" d="M34.84 28.84l-.94-.91a1.1 1.1 0 0 1 .1-1.65L38 23" fill="none" stroke="#000" stroke-linecap="round" stroke-linejoin="round" stroke-width="2px"/></g><metadata><rdf:RDF xmlns:rdf="http://www.w3.org/1999/02/22-rdf-syntax-ns#" xmlns:rdfs="http://www.w3.org/2000/01/rdf-schema#" xmlns:dc="http://purl.org/dc/elements/1.1/"><rdf:Description about="https://iconscout.com/legal#licenses" dc:title="-web,essential" dc:description="-web,essential" dc:publisher="Iconscout" dc:date="2018-07-06" dc:format="image/svg+xml" dc:language="en"><dc:creator><rdf:Bag><rdf:li>VINZENCE STUDIO</rdf:li></rdf:Bag></dc:creator></rdf:Description></rdf:RDF></metadata></svg>