<?xml version="1.0" encoding="UTF-8"?><svg xmlns="http://www.w3.org/2000/svg" viewBox="0 0 64 64"><defs><style>.cls-1{fill:none;stroke:#000;stroke-linecap:round;stroke-linejoin:round;stroke-width:2px;}</style></defs><title>18-web essential</title><g id="Layer_18" data-name="Layer 18"><path class="cls-1" fill="none" stroke="#000" stroke-linecap="round" stroke-linejoin="round" stroke-width="2px" d="M1.17 10.3h23.47v32.89H1.17z"/><circle class="cls-1" cx="17.79" cy="36.15" r="2.6" fill="none" stroke="#000" stroke-linecap="round" stroke-linejoin="round" stroke-width="2px"/><circle class="cls-1" cx="17.79" cy="26.77" r="2.6" fill="none" stroke="#000" stroke-linecap="round" stroke-linejoin="round" stroke-width="2px"/><path class="cls-1" d="M61.25 37.81a3.45 3.45 0 0 1 1.19 3.72c-1 3.07-3.62 5.76-6.73 5.76H40l1.89 3.44a9.91 9.91 0 0 1 1.21 4.76v3.4a3.82 3.82 0 0 1-3.83 3.83 3.82 3.82 0 0 1-3.83-3.83 9.9 9.9 0 0 0-2.58-6.67l-8.22-9V10.3H56a6.85 6.85 0 0 1 6.85 6.85 3.8 3.8 0 0 1-1.12 2.7 4.44 4.44 0 0 1 1.14 3v3.65a3.56 3.56 0 0 1-1.46 2.89 2.45 2.45 0 0 1 1.46 2.25v3.46a3.09 3.09 0 0 1-1.58 2.71z" fill="none" stroke="#000" stroke-linecap="round" stroke-linejoin="round" stroke-width="2px"/></g><metadata><rdf:RDF xmlns:rdf="http://www.w3.org/1999/02/22-rdf-syntax-ns#" xmlns:rdfs="http://www.w3.org/2000/01/rdf-schema#" xmlns:dc="http://purl.org/dc/elements/1.1/"><rdf:Description about="https://iconscout.com/legal#licenses" dc:title="-web,essential" dc:description="-web,essential" dc:publisher="Iconscout" dc:date="2018-07-06" dc:format="image/svg+xml" dc:language="en"><dc:creator><rdf:Bag><rdf:li>VINZENCE STUDIO</rdf:li></rdf:Bag></dc:creator></rdf:Description></rdf:RDF></metadata></svg>