<?xml version="1.0" encoding="UTF-8"?><svg xmlns="http://www.w3.org/2000/svg" viewBox="0 0 64 64"><defs><style>.cls-1{fill:none;stroke:#000;stroke-linecap:round;stroke-linejoin:round;stroke-width:2px;}</style></defs><title>04-web essential</title><g id="Layer_4" data-name="Layer 4"><path class="cls-1" d="M37.84 4.63a6.49 6.49 0 0 0 4.9 3.56 6.51 6.51 0 0 1 3.61 11.11 6.55 6.55 0 0 0-1.87 5.77A6.51 6.51 0 0 1 35 31.93a6.55 6.55 0 0 0-6.06 0 6.51 6.51 0 0 1-9.45-6.86 6.55 6.55 0 0 0-1.87-5.77 6.51 6.51 0 0 1 3.64-11.11 6.49 6.49 0 0 0 4.9-3.56 6.51 6.51 0 0 1 11.68 0z" fill="none" stroke="#000" stroke-linecap="round" stroke-linejoin="round" stroke-width="2px"/><path class="cls-1" fill="none" stroke="#000" stroke-linecap="round" stroke-linejoin="round" stroke-width="2px" d="M32 31.19v31.62"/><circle class="cls-1" cx="32" cy="17.38" r="6.21" fill="none" stroke="#000" stroke-linecap="round" stroke-linejoin="round" stroke-width="2px"/><path class="cls-1" d="M8.4 47.64a16 16 0 0 1 23.6 0 16 16 0 0 1-23.6 0z" fill="none" stroke="#000" stroke-linecap="round" stroke-linejoin="round" stroke-width="2px"/><path class="cls-1" d="M55.6 41.29a16 16 0 0 1-23.6 0 16 16 0 0 1 23.6 0z" fill="none" stroke="#000" stroke-linecap="round" stroke-linejoin="round" stroke-width="2px"/><path class="cls-1" fill="none" stroke="#000" stroke-linecap="round" stroke-linejoin="round" stroke-width="2px" d="M32 41.29h11.96"/><path class="cls-1" fill="none" stroke="#000" stroke-linecap="round" stroke-linejoin="round" stroke-width="2px" d="M32 47.64H20.96"/></g><metadata><rdf:RDF xmlns:rdf="http://www.w3.org/1999/02/22-rdf-syntax-ns#" xmlns:rdfs="http://www.w3.org/2000/01/rdf-schema#" xmlns:dc="http://purl.org/dc/elements/1.1/"><rdf:Description about="https://iconscout.com/legal#licenses" dc:title="-web,essential" dc:description="-web,essential" dc:publisher="Iconscout" dc:date="2018-07-06" dc:format="image/svg+xml" dc:language="en"><dc:creator><rdf:Bag><rdf:li>VINZENCE STUDIO</rdf:li></rdf:Bag></dc:creator></rdf:Description></rdf:RDF></metadata></svg>