<?xml version="1.0" encoding="UTF-8"?><svg xmlns="http://www.w3.org/2000/svg" viewBox="0 0 64 64"><defs><style>.cls-1{fill:none;stroke:#000;stroke-linecap:round;stroke-linejoin:round;stroke-width:2px;}</style></defs><title>22-web essential</title><g id="Layer_22" data-name="Layer 22"><circle class="cls-1" cx="32.08" cy="31.92" r="30.08" fill="none" stroke="#000" stroke-linecap="round" stroke-linejoin="round" stroke-width="2px"/><path class="cls-1" d="M7.92 14H23a2.16 2.16 0 0 1 2.15 2.16A2.15 2.15 0 0 1 23 18.31h-2.69A1.69 1.69 0 0 0 18.62 20a1.69 1.69 0 0 0 1.69 1.69h15a2.75 2.75 0 0 1 2.75 2.75 2.75 2.75 0 0 1-2.75 2.75h-22.4a2 2 0 0 0-2 2 2 2 0 0 0 2 2H22a2.54 2.54 0 0 1 2.53 2.54A2.53 2.53 0 0 1 22 36.19H2.3" fill="none" stroke="#000" stroke-linecap="round" stroke-linejoin="round" stroke-width="2px"/><path class="cls-1" d="M61.09 39.94h-19.4a2.62 2.62 0 0 0-2.63 2.62 2.63 2.63 0 0 0 2.63 2.63h4a1.66 1.66 0 0 1 1.66 1.65 1.66 1.66 0 0 1-1.66 1.66H34.31a2.69 2.69 0 0 0-2.69 2.69 2.7 2.7 0 0 0 2.69 2.69h18.34" fill="none" stroke="#000" stroke-linecap="round" stroke-linejoin="round" stroke-width="2px"/><path class="cls-1" fill="none" stroke="#000" stroke-linecap="round" stroke-linejoin="round" stroke-width="2px" d="M27.83 15.75H36"/><path class="cls-1" fill="none" stroke="#000" stroke-linecap="round" stroke-linejoin="round" stroke-width="2px" d="M39.33 15.75h2.75"/><path class="cls-1" fill="none" stroke="#000" stroke-linecap="round" stroke-linejoin="round" stroke-width="2px" d="M27.83 51.08h-7.65"/><path class="cls-1" fill="none" stroke="#000" stroke-linecap="round" stroke-linejoin="round" stroke-width="2px" d="M17.17 51.08h-2.42"/><path class="cls-1" fill="none" stroke="#000" stroke-linecap="round" stroke-linejoin="round" stroke-width="2px" d="M25.08 56.92h-9.53"/><path class="cls-1" fill="none" stroke="#000" stroke-linecap="round" stroke-linejoin="round" stroke-width="2px" d="M11.75 9.75h16.08"/></g><metadata><rdf:RDF xmlns:rdf="http://www.w3.org/1999/02/22-rdf-syntax-ns#" xmlns:rdfs="http://www.w3.org/2000/01/rdf-schema#" xmlns:dc="http://purl.org/dc/elements/1.1/"><rdf:Description about="https://iconscout.com/legal#licenses" dc:title="-web,essential" dc:description="-web,essential" dc:publisher="Iconscout" dc:date="2018-07-06" dc:format="image/svg+xml" dc:language="en"><dc:creator><rdf:Bag><rdf:li>VINZENCE STUDIO</rdf:li></rdf:Bag></dc:creator></rdf:Description></rdf:RDF></metadata></svg>