<?xml version="1.0" encoding="UTF-8"?><svg xmlns="http://www.w3.org/2000/svg" viewBox="0 0 64 64"><defs><style>.cls-1{fill:none;stroke:#000;stroke-linecap:round;stroke-linejoin:round;stroke-width:2px;}</style></defs><title>32-web essential</title><g id="Layer_32" data-name="Layer 32"><path class="cls-1" fill="none" stroke="#000" stroke-linecap="round" stroke-linejoin="round" stroke-width="2px" d="M1.92 1.52h60.4"/><path class="cls-1" d="M9.48 1.52A31.31 31.31 0 0 0 27.85 30l4.32 2 4-1.81A31.29 31.29 0 0 0 54.75 1.6v-.08z" fill="none" stroke="#000" stroke-linecap="round" stroke-linejoin="round" stroke-width="2px"/><path class="cls-1" fill="none" stroke="#000" stroke-linecap="round" stroke-linejoin="round" stroke-width="2px" d="M62.32 62.44H1.92"/><path class="cls-1" d="M54.75 62.44a31.29 31.29 0 0 0-18.36-28.5l-4.32-2L28 33.78A31.3 31.3 0 0 0 9.48 62.36v.08z" fill="none" stroke="#000" stroke-linecap="round" stroke-linejoin="round" stroke-width="2px"/><path class="cls-1" fill="none" stroke="#000" stroke-linecap="round" stroke-linejoin="round" stroke-width="2px" d="M45.41 5.03L34.17 16.68"/><path class="cls-1" fill="none" stroke="#000" stroke-linecap="round" stroke-linejoin="round" stroke-width="2px" d="M51.02 5.33l-9.28 9.62"/><path class="cls-1" fill="none" stroke="#000" stroke-linecap="round" stroke-linejoin="round" stroke-width="2px" d="M21.69 49.48l-8.25 8.55"/><path class="cls-1" fill="none" stroke="#000" stroke-linecap="round" stroke-linejoin="round" stroke-width="2px" d="M29.59 48.22l-8.25 8.55"/></g><metadata><rdf:RDF xmlns:rdf="http://www.w3.org/1999/02/22-rdf-syntax-ns#" xmlns:rdfs="http://www.w3.org/2000/01/rdf-schema#" xmlns:dc="http://purl.org/dc/elements/1.1/"><rdf:Description about="https://iconscout.com/legal#licenses" dc:title="-web,essential" dc:description="-web,essential" dc:publisher="Iconscout" dc:date="2018-07-06" dc:format="image/svg+xml" dc:language="en"><dc:creator><rdf:Bag><rdf:li>VINZENCE STUDIO</rdf:li></rdf:Bag></dc:creator></rdf:Description></rdf:RDF></metadata></svg>