<?xml version="1.0" encoding="UTF-8"?><svg xmlns="http://www.w3.org/2000/svg" viewBox="0 0 64 64"><defs><style>.cls-1{fill:none;stroke:#000;stroke-linejoin:round;stroke-width:2px;}</style></defs><title>08-web essential</title><g id="Layer_8" data-name="Layer 8"><path class="cls-1" d="M57.49 32.56a18.42 18.42 0 0 0-26-26.05 18.22 18.22 0 0 0-3.91 19.82L5.92 47.94 1.25 62.83l12.54-2.48 3.3-3.3-.51-5.4L21.11 53l3.13-3.13-1.48-4.06 4.4 1.19-.76-3.2 3.5.44 7.77-7.77a18.22 18.22 0 0 0 19.82-3.91z" fill="none" stroke="#000" stroke-linejoin="round" stroke-width="2px"/><path class="cls-1" fill="none" stroke="#000" stroke-linejoin="round" stroke-width="2px" d="M21.55 37.3L9.92 48.94"/><path class="cls-1" fill="none" stroke="#000" stroke-linejoin="round" stroke-width="2px" d="M26.83 32.03l-2.59 2.59"/><ellipse class="cls-1" cx="51.13" cy="12.87" rx="4.48" ry="4.53" transform="translate(5.87 39.92) rotate(-45)" fill="none" stroke="#000" stroke-linejoin="round" stroke-width="2px"/></g><metadata><rdf:RDF xmlns:rdf="http://www.w3.org/1999/02/22-rdf-syntax-ns#" xmlns:rdfs="http://www.w3.org/2000/01/rdf-schema#" xmlns:dc="http://purl.org/dc/elements/1.1/"><rdf:Description about="https://iconscout.com/legal#licenses" dc:title="-web,essential" dc:description="-web,essential" dc:publisher="Iconscout" dc:date="2018-07-06" dc:format="image/svg+xml" dc:language="en"><dc:creator><rdf:Bag><rdf:li>VINZENCE STUDIO</rdf:li></rdf:Bag></dc:creator></rdf:Description></rdf:RDF></metadata></svg>