<?xml version="1.0" encoding="UTF-8"?><svg xmlns="http://www.w3.org/2000/svg" viewBox="0 0 64 64"><defs><style>.cls-1{fill:none;stroke:#000;stroke-linecap:round;stroke-linejoin:round;stroke-width:2px;}</style></defs><title>17-web essential</title><g id="Layer_17" data-name="Layer 17"><path class="cls-1" fill="none" stroke="#000" stroke-linecap="round" stroke-linejoin="round" stroke-width="2px" d="M1 24.83h23.47v32.89H1z"/><circle class="cls-1" cx="17.62" cy="31.87" r="2.6" fill="none" stroke="#000" stroke-linecap="round" stroke-linejoin="round" stroke-width="2px"/><circle class="cls-1" cx="17.62" cy="41.26" r="2.6" fill="none" stroke="#000" stroke-linecap="round" stroke-linejoin="round" stroke-width="2px"/><path class="cls-1" d="M61.08 30.21a3.44 3.44 0 0 0 1.19-3.72c-1-3.07-3.61-5.76-6.72-5.76H39.83l1.88-3.44a9.92 9.92 0 0 0 1.22-4.76v-3.4a3.84 3.84 0 0 0-3.84-3.83 3.84 3.84 0 0 0-3.83 3.83 9.9 9.9 0 0 1-2.58 6.67l-8.21 9v32.92h31.32a6.84 6.84 0 0 0 6.85-6.85 3.82 3.82 0 0 0-1.12-2.7 4.45 4.45 0 0 0 1.15-3v-3.63a3.6 3.6 0 0 0-1.47-2.89 2.45 2.45 0 0 0 1.47-2.24v-3.49a3.12 3.12 0 0 0-1.59-2.71z" fill="none" stroke="#000" stroke-linecap="round" stroke-linejoin="round" stroke-width="2px"/></g><metadata><rdf:RDF xmlns:rdf="http://www.w3.org/1999/02/22-rdf-syntax-ns#" xmlns:rdfs="http://www.w3.org/2000/01/rdf-schema#" xmlns:dc="http://purl.org/dc/elements/1.1/"><rdf:Description about="https://iconscout.com/legal#licenses" dc:title="-web,essential" dc:description="-web,essential" dc:publisher="Iconscout" dc:date="2018-07-06" dc:format="image/svg+xml" dc:language="en"><dc:creator><rdf:Bag><rdf:li>VINZENCE STUDIO</rdf:li></rdf:Bag></dc:creator></rdf:Description></rdf:RDF></metadata></svg>