<?xml version="1.0" encoding="UTF-8"?><svg xmlns="http://www.w3.org/2000/svg" viewBox="0 0 64 64"><defs><style>.cls-1{fill:none;stroke:#000;stroke-linecap:round;stroke-linejoin:round;stroke-width:2px;}</style></defs><title>10-web essential</title><g id="Layer_10" data-name="Layer 10"><g id="_Group_" data-name="&lt;Group&gt;"><path id="_Path_" data-name="&lt;Path&gt;" class="cls-1" d="M31.93 11.71c.43-.66.82-1.31 1.25-1.92a18.56 18.56 0 0 1 6.87-6.08A14.94 14.94 0 0 1 45 2.2a15.3 15.3 0 0 1 8.12 1.13 15.61 15.61 0 0 1 8.67 9.25 19.65 19.65 0 0 1 1.12 7.26c0 1.09-.07 2.18-.15 3.27a25.54 25.54 0 0 1-3.21 10.75 32.8 32.8 0 0 1-3.9 5.36 76 76 0 0 1-5.4 5.52c-2.74 2.57-5.5 5.11-8.25 7.68-3.3 3.07-6.53 6.22-9.72 9.41l-.11.11a.63.63 0 0 1-.12-.1c-4-4-8.2-7.88-12.41-11.7-2.82-2.57-5.64-5.14-8.41-7.82A52.25 52.25 0 0 1 6.47 37a24.87 24.87 0 0 1-4.55-9.44 28 28 0 0 1-.74-4.73C1.1 21.49 1 20.13 1 18.77A16.73 16.73 0 0 1 9.14 4.28a15.32 15.32 0 0 1 5.61-1.91 15.45 15.45 0 0 1 11 2.57 20.18 20.18 0 0 1 6 6.43z" fill="none" stroke="#000" stroke-linecap="round" stroke-linejoin="round" stroke-width="2px"/><path id="_Path_2" data-name="&lt;Path&gt;" class="cls-1" d="M42.05 7.29a11 11 0 0 1 3.66-1.12 11.23 11.23 0 0 1 6 .84 11.54 11.54 0 0 1 6.4 6.83 14.57 14.57 0 0 1 .83 5.36c0 .81 0 1.61-.11 2.42a19 19 0 0 1-2.37 7.94" fill="none" stroke="#000" stroke-linecap="round" stroke-linejoin="round" stroke-width="2px"/></g></g><metadata><rdf:RDF xmlns:rdf="http://www.w3.org/1999/02/22-rdf-syntax-ns#" xmlns:rdfs="http://www.w3.org/2000/01/rdf-schema#" xmlns:dc="http://purl.org/dc/elements/1.1/"><rdf:Description about="https://iconscout.com/legal#licenses" dc:title="-web,essential" dc:description="-web,essential" dc:publisher="Iconscout" dc:date="2018-07-06" dc:format="image/svg+xml" dc:language="en"><dc:creator><rdf:Bag><rdf:li>VINZENCE STUDIO</rdf:li></rdf:Bag></dc:creator></rdf:Description></rdf:RDF></metadata></svg>