<?xml version="1.0" encoding="UTF-8"?><svg xmlns="http://www.w3.org/2000/svg" viewBox="0 0 64 64"><defs><style>.cls-1{fill:none;stroke:#000;stroke-linecap:round;stroke-linejoin:round;stroke-width:2px;}</style></defs><title>29-web essential</title><g id="Layer_29" data-name="Layer 29"><path class="cls-1" d="M49.7 62.23H8.3a3.88 3.88 0 0 1-4.06-4.34l5.93-35.34A2.81 2.81 0 0 1 13 20.33h32a2.81 2.81 0 0 1 2.83 2.22l5.93 35.34a3.88 3.88 0 0 1-4.06 4.34z" fill="none" stroke="#000" stroke-linecap="round" stroke-linejoin="round" stroke-width="2px"/><path class="cls-1" d="M17.57 20.33A11.42 11.42 0 0 1 29 8.88 11.42 11.42 0 0 1 40.43 20.3" fill="none" stroke="#000" stroke-linecap="round" stroke-linejoin="round" stroke-width="2px"/><path class="cls-1" d="M15 20.33l.83-4.95a2.78 2.78 0 0 1 2.82-2.21h1.15" fill="none" stroke="#000" stroke-linecap="round" stroke-linejoin="round" stroke-width="2px"/><path class="cls-1" d="M19.81 13.17h30.86a2.78 2.78 0 0 1 2.82 2.21l5.94 35.34c.38 2.28-3.62 4.34-6.14 4.34" fill="none" stroke="#000" stroke-linecap="round" stroke-linejoin="round" stroke-width="2px"/><path class="cls-1" d="M23.7 9.92a11.42 11.42 0 0 1 11-8.21 11.43 11.43 0 0 1 11.4 11.43" fill="none" stroke="#000" stroke-linecap="round" stroke-linejoin="round" stroke-width="2px"/></g><metadata><rdf:RDF xmlns:rdf="http://www.w3.org/1999/02/22-rdf-syntax-ns#" xmlns:rdfs="http://www.w3.org/2000/01/rdf-schema#" xmlns:dc="http://purl.org/dc/elements/1.1/"><rdf:Description about="https://iconscout.com/legal#licenses" dc:title="-web,essential" dc:description="-web,essential" dc:publisher="Iconscout" dc:date="2018-07-06" dc:format="image/svg+xml" dc:language="en"><dc:creator><rdf:Bag><rdf:li>VINZENCE STUDIO</rdf:li></rdf:Bag></dc:creator></rdf:Description></rdf:RDF></metadata></svg>