<?xml version="1.0" encoding="UTF-8"?><svg xmlns="http://www.w3.org/2000/svg" id="Layer_1" data-name="Layer 1" viewBox="0 0 64 64"><defs><style>.cls-1{fill:none;stroke:#000;stroke-miterlimit:10;stroke-width:2px;}</style></defs><title>01-web essential</title><path d="M32.5 2c4.5 0 8.08 5 8.08 11.19S37 24.37 32.5 24.37s-8.08-5-8.08-11.18S28 2 32.5 2m0-2c-5.57 0-10.08 5.9-10.08 13.19s4.51 13.18 10.08 13.18 10.08-5.9 10.08-13.18S38.07 0 32.5 0z"/><path class="cls-1" d="M26.76 26.37a28.49 28.49 0 0 1-11.47 6.26C9.18 34.38 6.72 53 6.09 58.94a1.94 1.94 0 0 0 1.64 2.13 160.12 160.12 0 0 0 49.54 0 1.94 1.94 0 0 0 1.64-2.13c-.63-6-3.09-24.56-9.2-26.31a28.49 28.49 0 0 1-11.47-6.26" fill="none" stroke="#000" stroke-miterlimit="10" stroke-width="2px"/><metadata><rdf:RDF xmlns:rdf="http://www.w3.org/1999/02/22-rdf-syntax-ns#" xmlns:rdfs="http://www.w3.org/2000/01/rdf-schema#" xmlns:dc="http://purl.org/dc/elements/1.1/"><rdf:Description about="https://iconscout.com/legal#licenses" dc:title="-web,essential" dc:description="-web,essential" dc:publisher="Iconscout" dc:date="2018-07-06" dc:format="image/svg+xml" dc:language="en"><dc:creator><rdf:Bag><rdf:li>VINZENCE STUDIO</rdf:li></rdf:Bag></dc:creator></rdf:Description></rdf:RDF></metadata></svg>